<svg xmlns="http://www.w3.org/2000/svg" version="1.1" xmlns:xlink="http://www.w3.org/1999/xlink" width="512" height="512" x="0" y="0" viewBox="0 0 64 64" style="enable-background:new 0 0 512 512" xml:space="preserve" class=""><g><path d="M59.46 23.26c-.18 0-.35-.1-.44-.27-.38-.73-.84-1.45-1.41-2.22a.493.493 0 0 1 .79-.59c.6.81 1.09 1.58 1.5 2.36.13.24.03.54-.21.66-.08.05-.16.06-.23.06zM47.94 12.84c-.08 0-.16-.02-.23-.06-.69-.37-1.51-.8-2.4-1.21a.49.49 0 1 1 .41-.89c.91.42 1.75.86 2.45 1.23a.495.495 0 0 1-.23.93zM33.29 7.18h-.01c-.04 0-.09-.01-.13-.02-.88-.23-1.74-.44-2.61-.61a.478.478 0 0 1-.38-.58c.05-.27.31-.44.58-.38.89.18 1.76.39 2.65.62.22.05.38.25.38.48 0 .27-.21.49-.48.49zM15.06 6.78a.49.49 0 0 1-.49-.49c0-.21.14-.41.34-.48.83-.26 1.74-.49 2.69-.66.27-.05.52.13.57.4s-.13.52-.4.57c-.89.16-1.73.36-2.51.61-.06.04-.13.05-.2.05zM3.93 17.14a.5.5 0 0 1-.5-.49c0-.09.02-.17.06-.24.31-.82.7-1.64 1.16-2.45.14-.24.44-.32.67-.18.24.14.32.44.18.67-.45.79-.83 1.58-1.12 2.37-.06.19-.25.32-.45.32zM5.28 32.15c-.14 0-.28-.06-.38-.18-.62-.74-1.1-1.53-1.49-2.43-.11-.24.01-.53.26-.64s.54.01.65.26c.35.81.79 1.52 1.34 2.19.17.21.15.52-.06.69-.1.08-.21.11-.32.11zM17.11 36.5c-.27 0-.49-.22-.49-.49s.21-.5.49-.5c.95-.01 1.82-.06 2.66-.14a.493.493 0 0 1 .1.98c-.87.09-1.77.14-2.76.15.01 0 .01 0 0 0zM32.54 33.57a.492.492 0 0 1-.15-.96c.68-.21 1.37-.44 2.08-.69.11-.04.24-.08.37-.11l.13-.04c.31-.09.64.15.64.47 0 .24-.17.44-.4.49l-.09.03-.3.09c-.74.25-1.44.48-2.12.7-.06.01-.11.02-.16.02zM59.67 37.15c-.07 0-.15-.02-.22-.05a.496.496 0 0 1-.22-.66c.19-.38.37-.79.53-1.24a.48.48 0 0 1 .63-.29c.26.09.39.38.29.63-.18.48-.37.93-.57 1.34-.09.17-.26.27-.44.27zM49.77 36.76a.51.51 0 0 1-.31-.11c-.65-.53-1.35-1.02-2.16-1.51a.488.488 0 0 1-.16-.68.49.49 0 0 1 .68-.16c.84.51 1.58 1.03 2.27 1.59.21.17.24.48.07.69-.11.12-.25.18-.39.18zM42.87 33.08c-.05 0-.1-.01-.15-.02-.82-.26-1.66-.46-2.56-.58-.27-.04-.46-.29-.42-.56s.29-.45.56-.42c.95.14 1.84.34 2.72.62.26.08.4.36.32.62-.07.2-.27.34-.47.34zM54.81 41.66c-.11 0-.22-.04-.3-.1 0 0-.94-.73-1.48-1.18a.481.481 0 0 1-.06-.69c.17-.21.48-.24.69-.06.39.33 1 .81 1.29 1.04.27-.04.81-.15 1.41-.4a.49.49 0 0 1 .38.9c-1.01.42-1.86.5-1.89.5-.01-.01-.02-.01-.04-.01zM61.29 30.83h-.02a.506.506 0 0 1-.48-.51c.03-.87-.02-1.75-.16-2.6-.04-.27.14-.52.41-.56s.52.14.56.41c.14.92.2 1.85.17 2.79 0 .26-.22.47-.48.47zM24.92 35.59c-.23 0-.43-.16-.48-.39-.05-.27.12-.53.39-.58.97-.2 1.83-.39 2.63-.6.26-.07.53.09.6.36s-.09.53-.36.6c-.82.21-1.7.41-2.68.61-.04-.01-.07 0-.1 0zM11.99 35.99c-.03 0-.07 0-.1-.01-.94-.2-1.81-.48-2.67-.85a.504.504 0 0 1-.26-.65c.11-.25.4-.36.65-.26.8.35 1.61.61 2.49.79a.5.5 0 0 1 .38.59c-.06.24-.27.39-.49.39zM2.71 24.85c-.25 0-.47-.2-.49-.45-.07-.9-.05-1.84.06-2.8.03-.27.27-.47.55-.43.27.03.46.27.43.55-.1.89-.12 1.77-.06 2.61.02.27-.18.51-.45.53-.02-.01-.03-.01-.04-.01zM8.28 10.66c-.13 0-.26-.05-.36-.15-.19-.2-.18-.51.02-.7.63-.6 1.38-1.18 2.2-1.72.23-.15.53-.08.68.14.15.23.08.53-.14.68-.78.51-1.47 1.05-2.06 1.61-.09.09-.22.14-.34.14zM25.53 5.81h-.05c-.79-.07-1.61-.11-2.67-.12-.27 0-.49-.23-.49-.5s.23-.52.5-.49c1.09.01 1.93.05 2.75.13.27.03.47.27.44.54-.01.25-.23.44-.48.44zM40.76 9.62c-.06 0-.12-.01-.18-.04-.8-.32-1.63-.63-2.52-.93a.488.488 0 0 1-.31-.62c.09-.26.36-.4.62-.31.91.31 1.76.62 2.58.95a.494.494 0 0 1-.19.95zM54.46 17.22a.49.49 0 0 1-.32-.12c-.71-.61-1.4-1.15-2.1-1.64a.505.505 0 0 1-.12-.69c.16-.22.46-.28.69-.12.72.51 1.43 1.07 2.17 1.69.21.18.23.49.06.69-.1.13-.24.19-.38.19z" fill="#000000" opacity="1" data-original="#000000" class=""></path><path d="M61.02 36.01c-.33 0-.66-.06-.97-.18-1.51-.57-2.4-2.11-2.08-3.57.1-.67.54-1.32 1.21-1.79.64-.46 1.34-.68 2.11-.63.86.05 1.67.49 2.15 1.18.47.69.65 1.58.5 2.46-.32 1.5-1.52 2.53-2.92 2.53zm.07-5.19c-.47 0-.93.15-1.34.45-.46.32-.75.73-.81 1.17-.22 1.02.41 2.06 1.46 2.46.2.08.41.12.62.12.93 0 1.74-.71 1.96-1.73.1-.61-.02-1.24-.34-1.71-.31-.44-.84-.72-1.41-.76zM60.62 28.17c-1.45 0-2.72-.9-3.03-2.13-.55-1.23.17-2.93 1.63-3.7.4-.21.83-.32 1.27-.32 1.23 0 2.36.81 2.88 2.06.3 1.06.18 2.04-.32 2.81-.43.66-1.08 1.1-1.85 1.23-.2.03-.39.05-.58.05zm-.14-5.16c-.28 0-.56.07-.81.2-.98.52-1.52 1.69-1.16 2.51.26 1 1.37 1.61 2.52 1.43.49-.08.91-.36 1.18-.79.34-.53.42-1.23.22-1.96-.34-.82-1.11-1.39-1.95-1.39zM56.3 21.56c-.87 0-1.68-.36-2.21-.99-1.09-1-1.12-2.87-.02-4.13 1.08-1.24 3.16-1.28 4.44-.07.67.76.97 1.66.87 2.55-.09.81-.48 1.51-1.11 1.98-.57.43-1.27.66-1.97.66zm-.05-5.12c-.57 0-1.09.23-1.45.65-.74.85-.74 2.13-.01 2.81.72.83 2 .88 2.88.22.41-.31.67-.77.73-1.3.07-.61-.15-1.24-.6-1.76-.41-.39-.97-.62-1.55-.62zM50.15 16.69c-.54 0-1.08-.14-1.55-.4-1.4-.83-1.89-2.69-1.1-4.15.51-.94 1.51-1.53 2.6-1.53.57 0 1.14.16 1.65.46.72.4 1.25 1.11 1.44 1.93.19.83.01 1.69-.47 2.38-.61.83-1.54 1.31-2.57 1.31zm-.06-5.1c-.73 0-1.4.39-1.74 1.01-.54 1-.22 2.27.72 2.83.32.17.69.27 1.07.27.71 0 1.35-.33 1.76-.9.33-.45.44-1.03.31-1.59-.12-.55-.48-1.03-.97-1.3-.35-.21-.75-.32-1.15-.32zM43.17 13.14c-.4 0-.8-.08-1.18-.22-1.54-.63-2.3-2.41-1.69-3.97.45-1.16 1.56-1.9 2.82-1.9.41 0 .82.08 1.21.24.75.29 1.37.91 1.67 1.69.31.79.29 1.66-.06 2.4a3.046 3.046 0 0 1-2.77 1.76zm-.05-5.11c-.85 0-1.6.5-1.9 1.28-.41 1.06.1 2.27 1.14 2.7 1.01.4 2.22-.05 2.7-1.04.24-.49.25-1.09.04-1.62s-.62-.95-1.13-1.14c-.29-.13-.57-.18-.85-.18zM35.76 10.44c-.31 0-.62-.05-.91-.14-1.57-.49-2.47-2.13-2.06-3.73.34-1.32 1.55-2.24 2.93-2.24.31 0 .62.05.92.14.83.27 1.49.83 1.87 1.58.36.72.42 1.54.15 2.29a3.05 3.05 0 0 1-2.9 2.1zm-.03-5.12c-.94 0-1.75.62-1.98 1.5-.28 1.09.33 2.21 1.4 2.55 1.06.34 2.23-.28 2.6-1.34.17-.5.14-1.05-.1-1.53-.26-.52-.71-.9-1.29-1.08-.2-.07-.42-.1-.63-.1zM28.12 8.67a2.7 2.7 0 0 1-.49-.04c-1.59-.21-2.73-1.69-2.58-3.35.14-1.68 1.69-2.92 3.49-2.68.89.15 1.66.63 2.13 1.33.45.66.62 1.46.46 2.24-.31 1.45-1.57 2.5-3.01 2.5zm-.03-5.12c-1.09 0-1.98.78-2.07 1.81-.1 1.14.67 2.15 1.75 2.29.13.02.24.03.34.03.98 0 1.83-.72 2.04-1.72.11-.52 0-1.05-.31-1.49-.32-.47-.85-.8-1.46-.9-.08-.01-.19-.02-.29-.02zM20.28 8.35c-1.5 0-2.8-1.1-3.07-2.62-.15-.79.06-1.63.57-2.28a3.08 3.08 0 0 1 2.23-1.18c.08-.01.18-.01.28-.01.81 0 1.57.3 2.15.86s.89 1.31.89 2.1c0 1.61-1.23 2.99-2.81 3.13h-.24zm0-5.12c-.07 0-.13 0-.19.01-.62.04-1.17.34-1.53.81-.34.44-.48.98-.38 1.5.19 1.05 1.08 1.81 2.1 1.81.05 0 .1 0 .15-.01 1.06-.1 1.9-1.04 1.9-2.15 0-.53-.21-1.02-.59-1.39-.39-.37-.91-.58-1.46-.58zM12.72 10.26a3.21 3.21 0 0 1-2.73-1.51c-.46-.73-.56-1.58-.3-2.39.24-.82.86-1.51 1.69-1.88.42-.2.88-.31 1.36-.31 1.29 0 2.41.8 2.8 1.98.49 1.51-.17 3.17-1.55 3.85-.42.17-.84.26-1.27.26zm.01-5.11c-.33 0-.64.07-.94.22-.58.26-1 .73-1.17 1.28s-.1 1.1.2 1.58c.29.45.74.8 1.27.96.49.14 1.01.12 1.47-.09.93-.46 1.38-1.6 1.03-2.65-.25-.78-1-1.3-1.86-1.3zM6.51 15.08a3.4 3.4 0 0 1-1.67-.45c-.7-.41-1.19-1.11-1.35-1.93-.17-.88.07-1.8.65-2.53.54-.68 1.34-1.12 2.2-1.21l.2-.01c.81 0 1.54.31 2.1.88.54.55.86 1.28.9 2.06.07.73-.15 1.47-.61 2.06-.57.71-1.47 1.13-2.42 1.13zm.04-5.15-.15.01c-.56.06-1.12.36-1.49.84-.4.51-.57 1.14-.45 1.74.1.54.42 1 .88 1.26.94.54 2.2.34 2.81-.43.31-.4.45-.87.4-1.38-.03-.56-.25-1.07-.62-1.45s-.86-.59-1.38-.59zM3.04 22.16c-.11 0-.22-.01-.33-.02-.81-.08-1.55-.51-2.03-1.19a3.11 3.11 0 0 1-.47-2.54C.53 16.99 1.73 16 3.11 16c.34 0 .67.06.99.18 1.5.57 2.38 2.12 2.04 3.61-.33 1.38-1.63 2.37-3.1 2.37zm.07-5.17c-.93 0-1.73.68-1.95 1.65-.15.62-.03 1.26.32 1.75.32.44.8.73 1.33.78 1.13.12 2.14-.59 2.38-1.59.23-1.01-.39-2.07-1.43-2.47-.21-.08-.43-.12-.65-.12zM2.95 30.03c-.48 0-.95-.12-1.37-.35C.85 29.25.31 28.5.07 27.63c-.18-.95-.01-1.84.46-2.54.48-.7 1.25-1.14 2.12-1.21.77-.06 1.48.14 2.15.6s1.09 1.09 1.22 1.83c.18.59.06 1.34-.35 2.06-.25.46-.74 1.09-1.62 1.46-.35.13-.72.2-1.1.2zm-.04-5.19c-.06 0-.12 0-.18.01-.57.05-1.08.33-1.39.78-.33.48-.44 1.11-.31 1.77.16.59.55 1.12 1.04 1.42.47.26 1.08.29 1.6.08.61-.25.96-.7 1.14-1.03.28-.48.37-.96.25-1.34-.09-.53-.37-.94-.81-1.24-.43-.3-.88-.45-1.34-.45zM7.33 36.5c-.65 0-1.33-.2-1.91-.57-.81-.66-1.29-1.47-1.39-2.31-.09-.87.25-1.74.92-2.34.53-.48 1.18-.76 1.99-.84.77-.09 1.51.09 2.04.54.53.32.93.95 1.09 1.73.1.59.17 1.36-.22 2.18s-1.14 1.42-1.96 1.56c-.16.03-.36.05-.56.05zm.01-5.09c-.09 0-.19.01-.29.02-.59.06-1.06.26-1.44.6-.44.39-.66.95-.61 1.5.07.58.42 1.15.98 1.62.49.3 1.22.45 1.71.35.52-.09 1-.48 1.25-1.02.27-.57.22-1.11.14-1.57-.1-.5-.35-.91-.65-1.08l-.09-.06c-.24-.25-.58-.36-1-.36zM14.48 38.94H14.26c-.97-.13-1.79-.61-2.3-1.34-.46-.65-.62-1.43-.45-2.2.35-1.6 1.83-2.76 3.36-2.53 1.48.06 2.73 1.46 2.74 3.11 0 .77-.3 1.49-.85 2.04-.59.59-1.4.92-2.28.92zm-.12-.98h.13c.6 0 1.16-.23 1.57-.64.36-.36.56-.84.56-1.34 0-1.11-.85-2.09-1.85-2.13-.13-.02-.21-.02-.29-.02-.93 0-1.79.77-2.01 1.78-.11.49 0 1 .29 1.43.35.49.92.82 1.6.92zM22.38 38.57c-1.59 0-2.9-1.15-3.05-2.68-.15-1.66 1.02-3.18 2.61-3.39.14-.02.26-.02.38-.02 1.53 0 2.8 1.02 3.08 2.49.16.82-.04 1.69-.54 2.37s-1.23 1.11-2.07 1.2c-.12.03-.27.03-.41.03zm-.06-5.1c-.08 0-.16 0-.26.01-1.07.14-1.86 1.18-1.75 2.32.1 1.02.98 1.79 2.07 1.79.1 0 .21-.01.3-.02.57-.06 1.06-.35 1.39-.8.34-.47.48-1.05.37-1.6-.2-1-1.07-1.7-2.12-1.7zM30.06 36.86c-1.42 0-2.64-.94-2.97-2.28-.4-1.63.57-3.29 2.16-3.71.26-.07.54-.11.82-.11 1.35 0 2.53.86 2.93 2.14.24.77.16 1.63-.23 2.35-.4.74-1.06 1.27-1.87 1.49-.29.09-.57.12-.84.12zm.01-5.11c-.19 0-.38.03-.57.08-1.08.28-1.74 1.41-1.46 2.52.27 1.08 1.44 1.76 2.59 1.45.54-.15.99-.51 1.27-1.01.27-.49.32-1.07.16-1.59a2.077 2.077 0 0 0-1.99-1.45zM37.67 34.9c-1.36 0-2.63-1.05-3.03-2.5-.22-.79-.06-1.63.43-2.31.55-.76 1.44-1.23 2.44-1.28h.17c.93 0 1.78.38 2.36 1.04.54.62.79 1.42.68 2.22-.2 1.53-1.45 2.75-2.9 2.84h-.13c-.01-.01-.01-.01-.02-.01zm.02-5.12h-.14c-.69.04-1.3.35-1.68.87-.31.44-.42.97-.28 1.47.28 1.03 1.15 1.78 2.07 1.78h.11c.97-.06 1.83-.92 1.97-1.99.07-.51-.09-1.03-.45-1.44-.38-.43-.97-.69-1.6-.69zM45.23 36.54c-.43 0-.85-.09-1.23-.27-1.4-.65-2.09-2.3-1.6-3.84.38-1.2 1.51-2 2.81-2 .46 0 .91.1 1.34.3.83.39 1.45 1.09 1.71 1.92.24.79.14 1.62-.28 2.32-.59.97-1.64 1.57-2.75 1.57zm-.02-5.12c-.87 0-1.63.53-1.87 1.32-.34 1.07.13 2.2 1.08 2.65.92.43 2.15.01 2.71-.92.28-.46.34-1 .18-1.52-.17-.57-.6-1.05-1.18-1.31-.29-.15-.6-.22-.92-.22zM51.65 41.01c-.86 0-1.64-.32-2.2-.91-1.03-1.14-1.05-2.92-.05-4.15a2.84 2.84 0 0 1 2.22-1.04c.87 0 1.68.37 2.3 1.04.67.7.98 1.65.85 2.58-.12.84-.59 1.56-1.29 1.98-.58.32-1.2.5-1.83.5zm-.03-5.12c-.57 0-1.1.25-1.45.68-.7.86-.7 2.08 0 2.86.64.67 1.86.78 2.8.22.45-.26.74-.72.82-1.26.09-.64-.13-1.28-.59-1.77-.44-.47-1-.73-1.58-.73zM58.15 41.76c-.87 0-1.68-.36-2.21-.99-1.09-1-1.12-2.87-.02-4.13 1.08-1.24 3.16-1.28 4.44-.07.67.76.97 1.66.87 2.55-.09.8-.48 1.51-1.11 1.98-.57.43-1.27.66-1.97.66zm-.05-5.12c-.57 0-1.09.23-1.45.65-.74.85-.74 2.13-.01 2.81.72.83 2 .88 2.88.22.41-.31.67-.77.73-1.3.07-.61-.15-1.24-.6-1.76-.41-.39-.97-.62-1.55-.62zM54.39 44.64a.47.47 0 0 1-.35-.15.492.492 0 0 1 .01-.7c.37-.36.58-1.58.29-2.48a.494.494 0 0 1 .94-.3c.38 1.2.13 2.83-.55 3.48-.09.1-.22.15-.34.15z" fill="#000000" opacity="1" data-original="#000000" class=""></path><path d="M49.59 58.46c-.07 0-.15-.02-.22-.05l-3.25-1.61a.492.492 0 0 1-.05-.85c.02-.01 2.12-1.42 2.2-3.9.08-2.65 1.34-4.15 2.11-4.83-.2-.71-.13-1.48.2-2.15a3.018 3.018 0 0 1 4.03-1.38c1.48.75 2.09 2.56 1.37 4.03-.33.67-.89 1.19-1.58 1.46-.05 1.02-.47 2.93-2.55 4.63-1.92 1.57-1.77 4.09-1.77 4.11.01.18-.07.35-.22.44-.08.08-.18.1-.27.1zm-2.34-2.19 1.87.92c.1-1.03.51-2.82 2.11-4.13 2.09-1.72 2.21-3.66 2.19-4.22-.01-.23.15-.43.37-.49.57-.14 1.05-.53 1.3-1.05.49-.99.07-2.21-.92-2.72-.99-.49-2.21-.07-2.7.93-.26.54-.28 1.14-.05 1.69.09.21.02.45-.16.58-.57.43-1.92 1.73-2 4.3-.07 2.07-1.25 3.48-2.01 4.19z" fill="#000000" opacity="1" data-original="#000000" class=""></path><path d="M47.97 61.75c-.07 0-.15-.02-.22-.05a.496.496 0 0 1-.22-.66l1.62-3.29c.12-.24.42-.34.66-.22s.34.42.22.66l-1.62 3.29c-.08.17-.26.27-.44.27zM46.35 60.95c-.07 0-.15-.02-.22-.05a.496.496 0 0 1-.22-.66l1.62-3.29c.12-.24.42-.34.66-.22s.34.42.22.66l-1.62 3.29c-.09.17-.26.27-.44.27zM44.72 60.15c-.07 0-.15-.02-.22-.05a.496.496 0 0 1-.22-.66l1.62-3.29c.12-.24.42-.34.66-.22s.34.42.22.66l-1.62 3.29c-.08.17-.26.27-.44.27zM53.91 49.32c-.07 0-.15-.02-.22-.05l-2.95-1.44a.497.497 0 0 1-.23-.66.5.5 0 0 1 .66-.23l2.95 1.44c.24.12.35.41.23.66a.48.48 0 0 1-.44.28z" fill="#000000" opacity="1" data-original="#000000" class=""></path></g></svg>