<svg xmlns="http://www.w3.org/2000/svg" version="1.1" xmlns:xlink="http://www.w3.org/1999/xlink" width="512" height="512" x="0" y="0" viewBox="0 0 32 32" style="enable-background:new 0 0 512 512" xml:space="preserve" class=""><g><path d="M16 30a14 14 0 1 1 14-14 14 14 0 0 1-14 14zm0-26a12 12 0 1 0 12 12A12 12 0 0 0 16 4zm1.41 12 5.3-5.29a1 1 0 0 0-1.42-1.42L16 14.59l-5.29-5.3a1 1 0 0 0-1.42 1.42l5.3 5.29-5.3 5.29a1 1 0 0 0 0 1.42 1 1 0 0 0 1.42 0l5.29-5.3 5.29 5.3a1 1 0 0 0 1.42 0 1 1 0 0 0 0-1.42z" data-name="20-Cancel" fill="#000000" opacity="1" data-original="#000000" class=""></path></g></svg>