<svg xmlns="http://www.w3.org/2000/svg" version="1.1" xmlns:xlink="http://www.w3.org/1999/xlink" width="512" height="512" x="0" y="0" viewBox="0 0 64 64" style="enable-background:new 0 0 512 512" xml:space="preserve" class=""><g><path d="m59.955 31.936-5.662-18.263a1.006 1.006 0 0 0-1.335-.629l-2.237.92c-.169-.434-.26-1.295-.824-1.458a1 1 0 0 0-.843.03 18.178 18.178 0 0 1-8.436 1.693A13.646 13.646 0 0 0 32 16.908a13.677 13.677 0 0 0-8.616-2.676 18.328 18.328 0 0 1-8.44-1.693 1.009 1.009 0 0 0-1.41.596l-.256.83-2.236-.92a1.006 1.006 0 0 0-1.335.628L4.045 31.936a1 1 0 0 0 .683 1.258l14.36 4.063v4.263a.94.94 0 0 1-.29.678l-4.579 4.368c-.964.798-.84 2.271-.828 3.39a1.629 1.629 0 0 0 2.468 1.374l15.274-9.444h1.729l4.622 2.855a1 1 0 0 0 1.051-1.701l-3.631-2.243a1.809 1.809 0 0 1 1.165-1.039l6.841-1.935v3.697a2.939 2.939 0 0 0 .91 2.124l4.574 4.364c.34.287.18.89.216 1.26l-6.074-3.759a1 1 0 0 0-1.052 1.701l6.665 4.124a1.623 1.623 0 0 0 1.639.03c1.052-.525.801-1.91.822-2.864a2.671 2.671 0 0 0-.83-1.934l-4.583-4.372a.93.93 0 0 1-.287-.674v-4.263l14.362-4.063a1.006 1.006 0 0 0 .683-1.258zM33 18.656a11.91 11.91 0 0 1 7.482-2.432 19.803 19.803 0 0 0 8.403-1.43l4.2 13.59c-2.02.776-7.308 2.653-11.95 2.572A13.498 13.498 0 0 0 33 33.588zM15.391 49.268c.04-.352-.116-1 .209-1.254l4.58-4.369a2.95 2.95 0 0 0 .909-2.125v-3.697l6.842 1.935a1.81 1.81 0 0 1 1.164 1.036zm20.133-11.434a3.823 3.823 0 0 0-2.42 2.052h-2.21a3.823 3.823 0 0 0-2.418-2.053L6.259 31.549l5.034-16.238 1.392.573-1.05 3.402a1 1 0 0 0 1.91.59l1.57-5.078a19.847 19.847 0 0 0 8.404 1.43A11.906 11.906 0 0 1 31 18.656v14.933a13.625 13.625 0 0 0-8.133-2.628c-4.624.075-9.932-1.799-11.95-2.575l1.389-4.51a1 1 0 0 0-1.911-.59l-1.66 5.39a1 1 0 0 0 .559 1.214c.298.128 7.385 3.117 13.6 3.071a12.383 12.383 0 0 1 8.646 3.674.991.991 0 0 0 1.2-.203 11.868 11.868 0 0 1 8.367-3.475c6.195.05 13.302-2.939 13.602-3.068a1 1 0 0 0 .56-1.214l-3.955-12.791 1.393-.573 5.034 16.238z" fill="#000000" opacity="1" data-original="#000000" class=""></path></g></svg>