<svg xmlns="http://www.w3.org/2000/svg" version="1.1" xmlns:xlink="http://www.w3.org/1999/xlink" width="512" height="512" x="0" y="0" viewBox="0 0 354.987 354" style="enable-background:new 0 0 512 512" xml:space="preserve" class=""><g><path d="M6.828 102.895A6.824 6.824 0 0 0 0 109.719v34.133a6.825 6.825 0 0 0 6.828 6.828 6.824 6.824 0 0 0 6.824-6.828v-34.133a6.823 6.823 0 0 0-6.824-6.824zM40.984 74.941a6.83 6.83 0 0 0-6.828 6.829v94.515a6.828 6.828 0 1 0 13.656 0V81.77a6.83 6.83 0 0 0-6.828-6.829zM75.094 27.8a6.827 6.827 0 0 0-6.828 6.825v191.148c0 3.77 3.058 6.829 6.828 6.829s6.828-3.059 6.828-6.829V34.625a6.827 6.827 0 0 0-6.828-6.824zM109.227 61.934a6.828 6.828 0 0 0-6.829 6.828v116.05a6.83 6.83 0 0 0 6.829 6.829 6.83 6.83 0 0 0 6.828-6.828V68.761a6.828 6.828 0 0 0-6.828-6.828zM212.293 45.406a6.824 6.824 0 0 0-6.824 6.828v153.59c0 3.77 3.054 6.824 6.824 6.824s6.828-3.054 6.828-6.824V52.234a6.828 6.828 0 0 0-6.828-6.828zM279.895 55.105a6.83 6.83 0 0 0-6.829 6.829v136.53c0 3.774 3.059 6.829 6.829 6.829s6.824-3.055 6.824-6.828V61.934a6.827 6.827 0 0 0-6.824-6.829zM314.027 89.238a6.83 6.83 0 0 0-6.828 6.828v68.266a6.827 6.827 0 1 0 13.652 0V96.066a6.827 6.827 0 0 0-6.824-6.828zM245.762.492a6.828 6.828 0 0 0-6.828 6.828v245.758a6.825 6.825 0 0 0 6.828 6.828 6.824 6.824 0 0 0 6.824-6.828V7.32a6.827 6.827 0 0 0-6.824-6.828zM143.36 109.719a6.827 6.827 0 0 0-6.825 6.828v27.305c0 3.773 3.055 6.828 6.824 6.828s6.828-3.055 6.828-6.828v-27.305a6.83 6.83 0 0 0-6.828-6.828zM348.16 107.434a6.827 6.827 0 0 0-6.828 6.824v29.539a6.83 6.83 0 0 0 6.828 6.828 6.83 6.83 0 0 0 6.828-6.828v-29.54a6.827 6.827 0 0 0-6.828-6.823zM176.852 94.418a6.824 6.824 0 0 0-6.829 6.824v55.57a6.827 6.827 0 1 0 13.652 0v-55.57a6.823 6.823 0 0 0-6.823-6.824zm0 0" fill="#000000" opacity="1" data-original="#000000" class=""></path></g></svg>